 <svg xmlns="http://www.w3.org/2000/svg" width="100%" height="100%" viewBox="0 0 582 582" version="1.1">
  <path d="M 401.026 16.494 C 389.965 19.008, 379.708 24.836, 362.500 38.382 C 353.700 45.310, 340.425 55.707, 333 61.486 C 320.193 71.455, 308.227 80.841, 272.908 108.618 C 252.147 124.946, 245.118 132.724, 239.326 145.778 C 223.704 180.988, 238.463 222.141, 272.722 238.901 C 283.960 244.398, 289.284 245.501, 304.500 245.484 C 317.324 245.469, 319.172 245.229, 326.500 242.622 C 339.037 238.161, 342.526 236.031, 361.089 221.505 C 384.663 203.058, 404.621 187.419, 422 173.776 C 429.975 167.515, 454.500 148.304, 476.500 131.085 C 498.500 113.866, 516.637 99.195, 516.805 98.483 C 516.973 97.770, 514.273 93.658, 510.805 89.344 C 507.337 85.029, 501.370 77.450, 497.544 72.500 C 464.467 29.703, 459.909 25.504, 438.229 17.857 C 430.514 15.135, 410.268 14.394, 401.026 16.494 M 273.582 336.608 C 266.223 338.070, 258.344 340.764, 252.080 343.959 C 248.039 346.021, 231.464 358.814, 162 413.486 C 130.496 438.281, 105.720 457.664, 95.500 465.510 C 90.550 469.310, 84.025 474.448, 81 476.928 C 77.975 479.408, 75.291 481.585, 75.035 481.766 C 74.391 482.224, 73.857 481.519, 99.667 514.287 C 112.408 530.464, 125.224 545.790, 128.145 548.346 C 152.975 570.066, 194.371 570.620, 219.500 549.568 C 222.250 547.264, 230.538 540.681, 237.917 534.940 C 245.297 529.198, 258.122 519.188, 266.417 512.696 C 274.713 506.203, 286.900 496.672, 293.500 491.515 C 336.081 458.242, 337.995 456.589, 344.448 447.500 C 353.244 435.112, 357.968 420.702, 357.988 406.197 C 358.052 361.483, 317.336 327.915, 273.582 336.608" stroke="none" fill="#248cdb" fillRule="evenodd"/>
  <path d="M 411.250 14.728 C 413.313 14.944, 416.688 14.944, 418.750 14.728 C 420.813 14.513, 419.125 14.336, 415 14.336 C 410.875 14.336, 409.188 14.513, 411.250 14.728 M 399.500 16.026 C 398.165 16.617, 398.995 16.714, 402 16.317 C 404.475 15.989, 406.688 15.559, 406.917 15.361 C 407.785 14.609, 401.410 15.180, 399.500 16.026 M 387.222 20.461 C 383.250 22.364, 380 24.172, 380 24.478 C 380 24.784, 382.350 23.843, 385.221 22.388 C 388.093 20.933, 392.030 19.157, 393.971 18.442 C 395.912 17.726, 396.812 17.109, 395.972 17.070 C 395.131 17.032, 391.194 18.557, 387.222 20.461 M 445 20.500 C 446.375 21.286, 447.950 21.929, 448.500 21.929 C 449.050 21.929, 448.375 21.286, 447 20.500 C 445.625 19.714, 444.050 19.071, 443.500 19.071 C 442.950 19.071, 443.625 19.714, 445 20.500 M 375.218 27.750 C 372.826 30.087, 372.786 30.202, 374.952 28.515 C 379.220 25.190, 379.423 25, 378.716 25 C 378.339 25, 376.765 26.238, 375.218 27.750 M 457 26.277 C 457 26.468, 458.462 27.695, 460.250 29.003 C 462.261 30.475, 462.960 30.717, 462.082 29.637 C 460.751 27.997, 457 25.517, 457 26.277 M 362.250 37.527 C 357.712 41.107, 354 44.247, 354 44.506 C 354 44.764, 357.825 42.023, 362.500 38.414 C 369.868 32.727, 371.825 30.970, 370.750 31.009 C 370.613 31.014, 366.788 33.947, 362.250 37.527 M 467.602 35.010 C 471.543 39.324, 482.838 53.466, 497.546 72.500 C 501.371 77.450, 507.313 84.999, 510.750 89.275 C 514.188 93.552, 517 97.565, 517 98.192 C 517 98.820, 517.261 99.072, 517.581 98.752 C 518.612 97.721, 515.969 93.919, 502.145 76.551 C 474.788 42.178, 470.080 36.441, 466.823 33.510 C 464.294 31.234, 464.481 31.593, 467.602 35.010 M 340.637 54.487 C 329.852 63.181, 328.734 64.677, 338.698 57.081 C 345.776 51.685, 350.140 47.822, 348.872 48.074 C 348.668 48.115, 344.962 51.001, 340.637 54.487 M 321 70.084 C 316.500 74.163, 316.500 74.163, 321.250 70.461 C 325.414 67.216, 326.648 65.993, 325.750 66.003 C 325.613 66.004, 323.475 67.841, 321 70.084 M 306.186 81.412 C 301.064 85.420, 296.114 89.495, 295.186 90.467 C 294.259 91.440, 298.356 88.510, 304.291 83.956 C 313.546 76.855, 317.103 73.800, 315.809 74.063 C 315.639 74.097, 311.309 77.405, 306.186 81.412 M 279.330 102.284 C 274.287 106.253, 264.890 113.550, 258.450 118.500 C 252.009 123.450, 239.898 132.900, 231.537 139.500 C 223.176 146.100, 210.563 156, 203.508 161.500 C 196.453 167, 187.490 174, 183.591 177.055 C 175.155 183.663, 126.715 221.338, 109 235.067 C 90.890 249.103, 82.395 259.820, 77.039 275.385 C 74.285 283.390, 72.775 299.375, 73.978 307.780 C 76.423 324.855, 80.670 333.242, 97.821 354.860 C 102.594 360.877, 112.087 373.045, 118.916 381.900 C 132.206 399.134, 133.396 400.003, 138.097 395.905 C 140.820 393.532, 172.233 368.876, 190.145 355.053 C 194.740 351.507, 203.950 344.307, 210.612 339.053 C 228.660 324.818, 254.352 304.728, 273.500 289.875 C 282.850 282.623, 293.650 274.151, 297.500 271.048 C 301.350 267.946, 310.575 260.819, 318 255.210 C 333.469 243.526, 342.393 235.767, 337.500 238.255 C 335.850 239.094, 330.900 241.061, 326.500 242.624 C 319.175 245.228, 317.319 245.469, 304.500 245.484 C 293.535 245.497, 289.199 245.091, 284.500 243.614 C 242.318 230.352, 221.656 185.604, 239.326 145.778 C 245.122 132.716, 252.214 124.869, 272.702 108.851 C 285.797 98.612, 290.141 94.886, 288.809 95.034 C 288.639 95.053, 284.374 98.316, 279.330 102.284 M 439.500 196.150 C 430.700 203.285, 419.450 212.245, 414.500 216.061 C 409.550 219.876, 400.485 226.936, 394.356 231.749 C 383.301 240.431, 380.159 242.881, 343.500 271.405 C 333.050 279.536, 320 289.712, 314.500 294.018 C 291.080 312.355, 277.582 322.813, 271.284 327.500 C 267.588 330.250, 262.520 334.300, 260.022 336.500 C 257.523 338.700, 254.134 341.534, 252.490 342.798 C 249.500 345.097, 249.500 345.097, 252.669 343.565 C 268.256 336.028, 287.320 333.241, 301.188 336.470 C 319.643 340.767, 334.435 350.343, 344.582 364.563 C 362.495 389.665, 362.441 422.168, 344.446 447.500 C 339.393 454.612, 334.703 459.137, 322.250 468.915 C 317.163 472.909, 313 476.400, 313 476.673 C 313 477.189, 315.414 475.366, 330.614 463.371 C 335.626 459.416, 341.574 455.238, 343.831 454.086 C 346.088 452.935, 350.762 449.365, 354.217 446.152 C 357.673 442.940, 367.250 435.037, 375.500 428.590 C 383.750 422.144, 396.065 412.511, 402.867 407.185 C 440.501 377.715, 457.476 364.510, 473 352.626 C 496.092 334.949, 502.274 328.707, 508.595 316.683 C 513.548 307.263, 516.011 298.197, 516.696 286.861 C 517.180 278.848, 516.893 275.642, 514.993 267.861 C 511.324 252.835, 507.219 245.998, 483.500 215.402 C 463.138 189.136, 457.849 182.877, 456.194 183.089 C 455.812 183.138, 448.300 189.015, 439.500 196.150 M 94.500 465.610 C 90.500 469.189, 90.500 469.189, 94.750 466.011 C 98.408 463.275, 99.727 461.957, 98.750 462.015 C 98.612 462.023, 96.700 463.641, 94.500 465.610 M 80.290 475.800 C 75.482 479.214, 73.890 481.030, 75.750 480.979 C 76.162 480.968, 78.750 478.960, 81.500 476.518 C 87.584 471.114, 87.205 470.889, 80.290 475.800 M 307.500 480.610 C 303.500 484.189, 303.500 484.189, 307.750 481.011 C 311.408 478.275, 312.727 476.957, 311.750 477.015 C 311.613 477.023, 309.700 478.641, 307.500 480.610 M 284.500 498.610 C 280.500 502.189, 280.500 502.189, 284.750 499.011 C 288.408 496.275, 289.727 494.957, 288.750 495.015 C 288.613 495.023, 286.700 496.641, 284.500 498.610 M 252 524.084 C 247.500 528.163, 247.500 528.163, 252.250 524.461 C 256.414 521.216, 257.648 519.993, 256.750 520.003 C 256.613 520.004, 254.475 521.841, 252 524.084 M 108 526 C 109.742 528.200, 111.393 530, 111.668 530 C 111.943 530, 110.742 528.200, 109 526 C 107.258 523.800, 105.607 522, 105.332 522 C 105.057 522, 106.258 523.800, 108 526 M 123.958 545.250 C 126.410 547.862, 128.548 550, 128.708 550 C 129.459 550, 128.665 549.102, 124.250 544.958 C 119.500 540.500, 119.500 540.500, 123.958 545.250 M 198 561.585 C 194.725 562.926, 194.692 562.981, 197.500 562.438 C 199.150 562.119, 200.928 561.440, 201.450 560.929 C 202.648 559.758, 202.303 559.823, 198 561.585" stroke="none" fill="#fbbc04" fillRule="evenodd"/>
</svg>